<!-- <svg xmlns="http://www.w3.org/2000/svg" fill="none" class="icon icon-hamburger" viewBox="0 0 18 16"><path fill="currentColor" d="M1 .5a.5.5 0 1 0 0 1h15.71a.5.5 0 0 0 0-1zM.5 8a.5.5 0 0 1 .5-.5h15.71a.5.5 0 0 1 0 1H1A.5.5 0 0 1 .5 8m0 7a.5.5 0 0 1 .5-.5h15.71a.5.5 0 0 1 0 1H1a.5.5 0 0 1-.5-.5"/></svg> -->

<svg class="icon icon-hamburger" width="60" height="51" viewBox="0 0 60 51" fill="none" xmlns="http://www.w3.org/2000/svg">
<path d="M1 3.5C1 2.11929 2.11929 1 3.5 1H51.5V2H3.5C2.67157 2 2 2.67157 2 3.5V47.6682C2 48.8804 3.36325 49.5919 4.35769 48.8988L17.1987 39.949C17.6181 39.6567 18.117 39.5 18.6282 39.5H51.5V40.5H18.6282C18.3215 40.5 18.0221 40.594 17.7705 40.7694L4.92948 49.7192C3.27208 50.8744 1 49.6885 1 47.6682V3.5Z" fill="black"/>
<path d="M18 15C18 14.7239 18.2239 14.5 18.5 14.5H58.5C58.7761 14.5 59 14.7239 59 15C59 15.2761 58.7761 15.5 58.5 15.5H18.5C18.2239 15.5 18 15.2761 18 15Z" fill="black"/>
<path d="M18.5 27.5C18.2239 27.5 18 27.7239 18 28C18 28.2761 18.2239 28.5 18.5 28.5H40.5C40.7761 28.5 41 28.2761 41 28C41 27.7239 40.7761 27.5 40.5 27.5H18.5Z" fill="black"/>
<path d="M1 3.5C1 2.11929 2.11929 1 3.5 1H51.5V2H3.5C2.67157 2 2 2.67157 2 3.5V47.6682C2 48.8804 3.36325 49.5919 4.35769 48.8988L17.1987 39.949C17.6181 39.6567 18.117 39.5 18.6282 39.5H51.5V40.5H18.6282C18.3215 40.5 18.0221 40.594 17.7705 40.7694L4.92948 49.7192C3.27208 50.8744 1 49.6885 1 47.6682V3.5Z" stroke="black" stroke-width="1.5" stroke-linecap="round"/>
<path d="M18 15C18 14.7239 18.2239 14.5 18.5 14.5H58.5C58.7761 14.5 59 14.7239 59 15C59 15.2761 58.7761 15.5 58.5 15.5H18.5C18.2239 15.5 18 15.2761 18 15Z" stroke="black" stroke-width="1.5" stroke-linecap="round"/>
<path d="M18.5 27.5C18.2239 27.5 18 27.7239 18 28C18 28.2761 18.2239 28.5 18.5 28.5H40.5C40.7761 28.5 41 28.2761 41 28C41 27.7239 40.7761 27.5 40.5 27.5H18.5Z" stroke="black" stroke-width="1.5" stroke-linecap="round"/>
</svg>
